<?xml version="1.0" encoding="UTF-8"?><svg id="Layer_1" xmlns="http://www.w3.org/2000/svg" viewBox="0 0 24 24"><defs><style>.cls-1{fill:#24174a;}.cls-2{fill:#f2d2b4;}</style></defs><g><path class="cls-1" d="M5.87,23.27v-3.05h1.32c.34,0,.6,.07,.79,.21s.28,.33,.28,.58c0,.17-.04,.31-.12,.42-.08,.11-.18,.2-.31,.26s-.28,.09-.43,.09l.07-.1c.19,0,.36,.03,.5,.09,.14,.06,.25,.15,.33,.27,.08,.12,.12,.26,.12,.44,0,.26-.1,.46-.29,.6-.19,.14-.48,.21-.86,.21h-1.4Zm.32-.27h1.08c.27,0,.47-.05,.61-.14,.14-.09,.21-.24,.21-.44s-.07-.34-.21-.43c-.14-.09-.35-.14-.61-.14h-1.11v-.27h1.01c.24,0,.43-.05,.57-.14s.2-.23,.2-.41-.07-.33-.2-.42-.33-.14-.57-.14h-.97v2.52Z"/><path class="cls-1" d="M9.3,23.29c-.17,0-.32-.03-.45-.08-.13-.06-.22-.14-.29-.24-.07-.1-.1-.22-.1-.35,0-.12,.03-.23,.08-.32,.06-.1,.15-.18,.28-.24,.13-.06,.3-.09,.52-.09h.79v.23h-.78c-.22,0-.37,.04-.46,.12-.09,.08-.13,.18-.13,.29,0,.13,.05,.24,.15,.31,.1,.08,.24,.12,.43,.12s.33-.04,.45-.12c.13-.08,.22-.2,.28-.35l.07,.21c-.06,.15-.16,.27-.3,.36-.14,.09-.32,.13-.54,.13Zm.79-.02v-.59s-.01-.85-.01-.85c0-.19-.05-.34-.16-.45-.11-.1-.27-.16-.49-.16-.15,0-.29,.02-.42,.07-.13,.05-.25,.11-.34,.2l-.14-.23c.12-.1,.26-.18,.42-.23,.16-.05,.33-.08,.51-.08,.3,0,.53,.07,.69,.22s.24,.37,.24,.67v1.42h-.3Z"/><path class="cls-1" d="M10.54,23.27v-.21l1.53-1.93,.07,.1h-1.57v-.26h1.81v.2l-1.52,1.94-.08-.1h1.63v.26h-1.87Z"/><path class="cls-1" d="M12.74,20.47c-.06,0-.12-.02-.16-.07s-.07-.1-.07-.16,.02-.11,.07-.16c.04-.04,.1-.06,.16-.06s.12,.02,.16,.06c.04,.04,.07,.09,.07,.15,0,.06-.02,.12-.06,.16-.04,.04-.1,.07-.16,.07Zm-.16,2.8v-2.29h.31v2.29h-.31Z"/><path class="cls-1" d="M13.25,23.27v-3.05h1.32c.27,0,.51,.04,.71,.13s.35,.22,.46,.38,.16,.36,.16,.59-.05,.42-.16,.59-.26,.29-.46,.38-.43,.13-.71,.13h-.93l.31-.32v1.16h-.71Zm.71-1.08l-.31-.34h.89c.22,0,.38-.05,.49-.14s.16-.22,.16-.39-.05-.3-.16-.39-.27-.14-.49-.14h-.89l.31-.34v1.73Z"/><path class="cls-1" d="M16.61,23.3c-.18,0-.34-.03-.47-.09-.13-.06-.23-.15-.3-.26-.07-.11-.1-.23-.1-.36s.03-.26,.1-.37c.07-.1,.18-.19,.33-.25s.34-.09,.58-.09h.62v.4h-.55c-.16,0-.27,.03-.33,.08-.06,.05-.09,.12-.09,.2,0,.09,.03,.16,.1,.21,.07,.05,.16,.08,.28,.08s.22-.03,.31-.08c.09-.05,.16-.13,.2-.24l.1,.31c-.05,.15-.14,.27-.27,.34-.13,.08-.3,.12-.51,.12Zm.72-.03v-.46l-.04-.1v-.82c0-.15-.04-.26-.13-.34-.09-.08-.22-.12-.41-.12-.12,0-.25,.02-.37,.06-.12,.04-.22,.09-.31,.16l-.24-.48c.13-.09,.28-.16,.46-.21,.18-.05,.36-.07,.55-.07,.36,0,.64,.08,.83,.25,.2,.17,.3,.43,.3,.79v1.34h-.64Z"/><path class="cls-1" d="M18.93,23.3c-.2,0-.39-.02-.58-.07-.18-.05-.33-.11-.44-.18l.23-.49c.11,.07,.23,.12,.38,.16s.29,.06,.43,.06c.16,0,.27-.02,.33-.06,.07-.04,.1-.09,.1-.16,0-.06-.03-.1-.08-.12s-.12-.05-.2-.06c-.08-.01-.18-.03-.28-.04-.1-.01-.2-.03-.3-.06-.1-.02-.19-.06-.28-.11-.08-.05-.15-.12-.2-.2-.05-.08-.08-.19-.08-.33,0-.15,.04-.28,.13-.39,.09-.11,.21-.2,.37-.27,.16-.07,.36-.1,.58-.1,.16,0,.32,.02,.49,.05,.17,.04,.3,.09,.41,.15l-.23,.48c-.11-.07-.23-.11-.34-.14-.11-.02-.23-.04-.33-.04-.15,0-.26,.02-.33,.06-.07,.04-.1,.09-.1,.16,0,.06,.03,.1,.08,.13,.05,.03,.12,.05,.2,.07,.08,.02,.18,.03,.28,.05,.1,.01,.2,.03,.3,.06,.1,.03,.19,.06,.28,.11,.08,.05,.15,.11,.2,.2,.05,.08,.08,.19,.08,.32,0,.15-.04,.27-.13,.39-.09,.11-.21,.2-.38,.26-.16,.06-.36,.1-.6,.1Z"/><path class="cls-1" d="M20.81,23.3c-.2,0-.39-.02-.58-.07-.18-.05-.33-.11-.44-.18l.23-.49c.11,.07,.23,.12,.38,.16s.29,.06,.43,.06c.16,0,.27-.02,.33-.06,.07-.04,.1-.09,.1-.16,0-.06-.03-.1-.08-.12s-.12-.05-.2-.06c-.08-.01-.18-.03-.28-.04-.1-.01-.2-.03-.3-.06-.1-.02-.19-.06-.28-.11-.08-.05-.15-.12-.2-.2-.05-.08-.08-.19-.08-.33,0-.15,.04-.28,.13-.39,.09-.11,.21-.2,.37-.27,.16-.07,.36-.1,.58-.1,.16,0,.32,.02,.49,.05,.17,.04,.3,.09,.41,.15l-.23,.48c-.11-.07-.23-.11-.34-.14-.11-.02-.23-.04-.33-.04-.15,0-.26,.02-.33,.06-.07,.04-.1,.09-.1,.16,0,.06,.03,.1,.08,.13,.05,.03,.12,.05,.2,.07,.08,.02,.18,.03,.28,.05,.1,.01,.2,.03,.3,.06,.1,.03,.19,.06,.28,.11,.08,.05,.15,.11,.2,.2,.05,.08,.08,.19,.08,.32,0,.15-.04,.27-.13,.39-.09,.11-.21,.2-.38,.26-.16,.06-.36,.1-.6,.1Z"/></g><path class="cls-1" d="M19.52,19.65c-.87-2.21-3.01-4.06-5.25-4.89,1.53-1.02,2.54-2.75,2.54-4.72,0-3.13-2.54-5.67-5.67-5.67s-5.67,2.54-5.67,5.67c0,1.97,1.01,3.71,2.54,4.72-3.46,1.28-5.94,4.6-5.94,8.5h1.51c0-4.17,3.39-7.56,7.56-7.56,2.74,0,5.45,1.75,6.77,3.94h1.6ZM6.99,10.04c0-2.29,1.86-4.16,4.16-4.16s4.16,1.86,4.16,4.16-1.86,4.16-4.16,4.16-4.16-1.86-4.16-4.16Z"/><g><path class="cls-2" d="M10.06,1.35l-.32,1c-.02,.07-.08,.14-.16,.17-.07,.04-.16,.04-.23,.02h-.03s-1.78-.62-1.78-.62l-.74,1.69h0c-.03,.07-.09,.12-.16,.16-.07,.03-.15,.03-.22,0l-1.14-.42,.62,1.5,4.76-2.06-.59-1.44Z"/><path class="cls-1" d="M11.41,3.57c-1.19,.1-1.92,.32-2.89,.73s-2.11,1.32-2.41,1.78c-.08,.13-.34-.54-.42-.72l-.93-2.14c-.04-.1-.01-.21,.07-.29,.09-.08,.21-.1,.32-.07l1.33,.5,.74-1.69c.03-.07,.09-.12,.16-.16,.07-.03,.15-.04,.22-.01l1.79,.62,.4-1.22c.03-.11,.14-.19,.26-.2,.12-.01,.23,.04,.27,.14l.92,2.12c.06,.13,.33,.6,.18,.61Zm-5.51,1.28l4.76-2.06-.59-1.44-.32,1c-.02,.07-.08,.14-.16,.17-.07,.04-.16,.04-.23,.02l-1.81-.62-.74,1.7c-.03,.07-.09,.12-.16,.16-.07,.03-.15,.03-.22,0l-1.14-.42,.62,1.5Z"/></g></svg>