<?xml version="1.0" encoding="UTF-8"?><svg id="Layer_1" xmlns="http://www.w3.org/2000/svg" viewBox="0 0 146.7 155.91"><defs><style>.cls-1{fill:#24174a;}.cls-2{fill:#f2d2b4;}</style></defs><g><path class="cls-1" d="M47.42,125.59v-12.91h5.57c1.44,0,2.55,.29,3.35,.87s1.19,1.4,1.19,2.45c0,.7-.16,1.29-.49,1.77-.33,.48-.77,.84-1.33,1.09s-1.17,.37-1.83,.37l.31-.44c.82,0,1.53,.13,2.13,.38,.6,.25,1.06,.63,1.39,1.12,.33,.5,.5,1.12,.5,1.85,0,1.09-.4,1.94-1.21,2.54-.8,.6-2.02,.9-3.64,.9h-5.94Zm1.36-1.13h4.55c1.13,0,2-.19,2.6-.58,.6-.39,.9-1,.9-1.85s-.3-1.45-.9-1.83c-.6-.39-1.47-.58-2.6-.58h-4.7v-1.13h4.26c1.03,0,1.83-.2,2.41-.59s.86-.98,.86-1.75-.29-1.37-.86-1.76-1.37-.58-2.41-.58h-4.11v10.66Z"/><path class="cls-1" d="M61.92,125.68c-.72,0-1.35-.12-1.89-.36-.54-.24-.94-.57-1.23-1-.28-.42-.42-.91-.42-1.47,0-.5,.12-.96,.36-1.37,.24-.41,.63-.74,1.18-1,.55-.25,1.28-.38,2.2-.38h3.34v.98h-3.3c-.93,0-1.58,.17-1.95,.5-.36,.33-.54,.74-.54,1.23,0,.55,.21,.99,.65,1.33,.43,.33,1.03,.5,1.81,.5s1.37-.17,1.91-.51c.53-.34,.92-.83,1.17-1.47l.3,.9c-.25,.64-.67,1.15-1.28,1.53-.61,.38-1.37,.57-2.3,.57Zm3.34-.09v-2.14l-.06-.35v-3.58c0-.82-.23-1.46-.69-1.9-.46-.44-1.15-.66-2.06-.66-.63,0-1.22,.11-1.79,.31-.57,.21-1.05,.49-1.44,.83l-.59-.98c.49-.42,1.08-.74,1.77-.97,.69-.23,1.41-.34,2.18-.34,1.25,0,2.22,.31,2.9,.93s1.02,1.56,1.02,2.83v6.01h-1.25Z"/><path class="cls-1" d="M67.18,125.59v-.87l6.45-8.17,.28,.44h-6.62v-1.09h7.65v.85l-6.43,8.19-.33-.44h6.89v1.09h-7.89Z"/><path class="cls-1" d="M76.47,113.77c-.27,0-.5-.09-.68-.28s-.28-.41-.28-.66,.09-.48,.28-.66c.18-.18,.41-.27,.68-.27s.5,.09,.68,.26c.18,.17,.28,.39,.28,.65,0,.27-.09,.5-.27,.68-.18,.18-.41,.28-.69,.28Zm-.66,11.82v-9.68h1.31v9.68h-1.31Z"/><path class="cls-1" d="M78.63,125.59v-12.91h5.59c1.16,0,2.15,.19,2.99,.56s1.48,.91,1.94,1.61,.68,1.54,.68,2.51-.23,1.79-.68,2.49-1.1,1.24-1.94,1.61-1.83,.56-2.99,.56h-3.93l1.33-1.35v4.9h-2.99Zm2.99-4.57l-1.33-1.42h3.76c.92,0,1.61-.2,2.06-.59s.68-.94,.68-1.64-.23-1.27-.68-1.66-1.14-.59-2.06-.59h-3.76l1.33-1.42v7.32Z"/><path class="cls-1" d="M92.86,125.74c-.78,0-1.44-.13-1.99-.4-.55-.26-.98-.62-1.27-1.08-.3-.45-.44-.96-.44-1.53s.14-1.11,.43-1.55c.29-.44,.75-.79,1.37-1.04s1.44-.38,2.45-.38h2.64v1.68h-2.32c-.68,0-1.14,.11-1.39,.33-.25,.22-.38,.5-.38,.83,0,.37,.15,.66,.43,.88,.29,.21,.69,.32,1.19,.32s.91-.11,1.29-.34c.38-.23,.66-.56,.83-1.01l.44,1.33c-.21,.64-.59,1.12-1.14,1.46-.55,.33-1.27,.5-2.14,.5Zm3.02-.15v-1.94l-.18-.42v-3.47c0-.62-.19-1.09-.56-1.44-.38-.35-.95-.52-1.72-.52-.53,0-1.05,.08-1.56,.25-.51,.17-.94,.39-1.3,.67l-1.03-2.01c.54-.38,1.19-.68,1.95-.88,.76-.21,1.54-.31,2.32-.31,1.51,0,2.69,.36,3.52,1.07,.84,.71,1.25,1.83,1.25,3.34v5.66h-2.69Z"/><path class="cls-1" d="M102.67,125.74c-.85,0-1.66-.1-2.44-.3-.78-.2-1.4-.46-1.85-.77l.96-2.07c.45,.28,.99,.51,1.61,.69s1.23,.27,1.83,.27c.66,0,1.13-.08,1.41-.24,.28-.16,.41-.38,.41-.66,0-.23-.11-.41-.32-.53s-.5-.21-.86-.27c-.36-.06-.75-.12-1.17-.18-.42-.06-.85-.14-1.28-.25-.43-.1-.82-.26-1.18-.47-.36-.21-.64-.49-.86-.85-.22-.36-.32-.82-.32-1.38,0-.63,.18-1.18,.54-1.66,.36-.48,.89-.86,1.58-1.13,.69-.28,1.51-.41,2.47-.41,.68,0,1.37,.07,2.06,.22,.7,.15,1.28,.36,1.75,.65l-.96,2.05c-.48-.28-.96-.48-1.45-.58-.48-.1-.96-.16-1.41-.16-.64,0-1.11,.09-1.4,.26-.29,.17-.44,.39-.44,.66,0,.25,.11,.43,.32,.55,.22,.12,.5,.22,.86,.29,.36,.08,.75,.14,1.17,.19,.42,.06,.85,.14,1.28,.25,.43,.11,.82,.27,1.17,.47,.35,.2,.64,.48,.86,.83,.22,.35,.33,.81,.33,1.37,0,.62-.18,1.16-.55,1.63-.37,.47-.9,.84-1.59,1.11-.69,.27-1.54,.41-2.53,.41Z"/><path class="cls-1" d="M110.61,125.74c-.85,0-1.66-.1-2.44-.3-.78-.2-1.4-.46-1.85-.77l.96-2.07c.45,.28,.99,.51,1.61,.69s1.23,.27,1.83,.27c.66,0,1.13-.08,1.41-.24,.28-.16,.41-.38,.41-.66,0-.23-.11-.41-.32-.53s-.5-.21-.86-.27c-.36-.06-.75-.12-1.17-.18-.42-.06-.85-.14-1.28-.25-.43-.1-.82-.26-1.18-.47-.36-.21-.64-.49-.86-.85-.22-.36-.32-.82-.32-1.38,0-.63,.18-1.18,.54-1.66,.36-.48,.89-.86,1.58-1.13,.69-.28,1.51-.41,2.47-.41,.68,0,1.37,.07,2.06,.22,.7,.15,1.28,.36,1.75,.65l-.96,2.05c-.48-.28-.96-.48-1.45-.58-.48-.1-.96-.16-1.41-.16-.64,0-1.11,.09-1.4,.26-.29,.17-.44,.39-.44,.66,0,.25,.11,.43,.32,.55,.22,.12,.5,.22,.86,.29,.36,.08,.75,.14,1.17,.19,.42,.06,.85,.14,1.28,.25,.43,.11,.82,.27,1.17,.47,.35,.2,.64,.48,.86,.83,.22,.35,.33,.81,.33,1.37,0,.62-.18,1.16-.55,1.63-.37,.47-.9,.84-1.59,1.11-.69,.27-1.54,.41-2.53,.41Z"/></g><path class="cls-1" d="M105.14,110.29c-3.69-9.36-12.73-17.17-22.18-20.66,6.47-4.29,10.74-11.64,10.74-19.97,0-13.21-10.75-23.96-23.96-23.96s-23.96,10.75-23.96,23.96c0,8.33,4.28,15.67,10.74,19.97-14.64,5.4-25.12,19.45-25.12,35.94h6.39c0-17.62,14.33-31.95,31.95-31.95,11.6,0,23.04,7.39,28.63,16.67h6.76Zm-52.97-40.62c0-9.69,7.88-17.57,17.57-17.57s17.57,7.88,17.57,17.57-7.88,17.57-17.57,17.57-17.57-7.88-17.57-17.57Z"/><g><path class="cls-2" d="M65.15,32.94l-1.37,4.22c-.1,.31-.34,.58-.66,.73-.31,.16-.67,.18-.99,.07l-.13-.04-7.51-2.58-3.12,7.16h0c-.13,.3-.39,.53-.68,.67-.31,.13-.65,.14-.95,.03l-4.81-1.8,2.61,6.33,20.11-8.72-2.5-6.08Z"/><path class="cls-1" d="M70.85,42.33c-5.05,.42-8.12,1.37-12.23,3.1s-8.91,5.59-10.19,7.51c-.36,.53-1.44-2.3-1.79-3.03l-3.93-9.06c-.18-.41-.05-.89,.31-1.22,.37-.33,.89-.44,1.33-.28l5.62,2.1,3.12-7.16c.12-.28,.37-.52,.67-.66,.3-.13,.64-.15,.94-.05l7.58,2.6,1.68-5.17c.15-.46,.59-.8,1.1-.86,.51-.06,.97,.18,1.15,.6l3.89,8.98c.23,.54,1.41,2.53,.75,2.58Zm-23.3,5.4l20.11-8.72-2.5-6.08-1.37,4.22c-.1,.31-.34,.58-.66,.73-.31,.16-.67,.18-.99,.07l-7.63-2.62-3.12,7.17c-.13,.29-.39,.51-.69,.66-.31,.13-.65,.14-.95,.03l-4.81-1.8,2.61,6.33Z"/></g></svg>