<svg width="48" height="48" viewBox="0 0 48 48" fill="none" xmlns="http://www.w3.org/2000/svg">
<path fill-rule="evenodd" clip-rule="evenodd" d="M17.875 14C17.875 10.6173 20.6173 7.875 24 7.875C27.3828 7.875 30.125 10.6173 30.125 14C30.125 17.3827 27.3828 20.125 24 20.125C20.6173 20.125 17.875 17.3827 17.875 14ZM24 4.125C18.5462 4.125 14.125 8.54619 14.125 14C14.125 19.4538 18.5462 23.875 24 23.875C29.4538 23.875 33.875 19.4538 33.875 14C33.875 8.54619 29.4538 4.125 24 4.125ZM11.875 36.6668C11.875 33.9754 13.9902 31.8751 16.5 31.8751H31.5C34.0098 31.8751 36.125 33.9754 36.125 36.6668V38.1251H11.875V36.6668ZM16.5 28.1251C11.8301 28.1251 8.125 31.9944 8.125 36.6668V40.0001C8.125 41.0356 8.96447 41.8751 10 41.8751H38C39.0355 41.8751 39.875 41.0356 39.875 40.0001V36.6668C39.875 31.9944 36.1698 28.1251 31.5 28.1251H16.5Z" fill="black"/>
</svg>
