<svg width="48" height="48" viewBox="0 0 48 48" fill="none" xmlns="http://www.w3.org/2000/svg">
<path d="M8 22.1248C6.96447 22.1248 6.125 22.9642 6.125 23.9998C6.125 25.0353 6.96447 25.8748 8 25.8748V22.1248ZM40 25.8748C41.0355 25.8748 41.875 25.0353 41.875 23.9998C41.875 22.9642 41.0355 22.1248 40 22.1248V25.8748ZM8 10.1248C6.96447 10.1248 6.125 10.9642 6.125 11.9998C6.125 13.0353 6.96447 13.8748 8 13.8748V10.1248ZM40 13.8748C41.0355 13.8748 41.875 13.0353 41.875 11.9998C41.875 10.9642 41.0355 10.1248 40 10.1248V13.8748ZM8 34.1248C6.96447 34.1248 6.125 34.9642 6.125 35.9998C6.125 37.0353 6.96447 37.8748 8 37.8748V34.1248ZM40 37.8748C41.0355 37.8748 41.875 37.0353 41.875 35.9998C41.875 34.9642 41.0355 34.1248 40 34.1248V37.8748ZM8 25.8748H40V22.1248H8V25.8748ZM8 13.8748H40V10.1248H8V13.8748ZM8 37.8748H40V34.1248H8V37.8748Z" fill="black"/>
</svg>
