<svg width="48" height="48" viewBox="0 0 48 48" fill="none" xmlns="http://www.w3.org/2000/svg">
<path d="M37 19.9998L38.0414 19.0548C37.7749 18.761 37.3967 18.5935 37 18.5935V19.9998ZM44 27.714H45.4062C45.4062 27.3647 45.2762 27.0278 45.0414 26.7691L44 27.714ZM44 35.9998L44.0002 37.406C44.7768 37.4059 45.4062 36.7763 45.4062 35.9998H44ZM39.8295 36.0003L38.5035 36.4687V36.4687L39.8295 36.0003ZM34.1705 36.0003L35.4965 36.4687V36.4687L34.1705 36.0003ZM30 19.9998V18.5935C29.2233 18.5935 28.5937 19.2231 28.5937 19.9998H30ZM2 10.5935C1.22335 10.5935 0.59375 11.2231 0.59375 11.9998C0.59375 12.7764 1.22335 13.406 2 13.406V10.5935ZM30 11.9998H31.4062C31.4062 11.2231 30.7766 10.5935 30 10.5935V11.9998ZM8.00038 34.5935C7.22373 34.5933 6.59396 35.2227 6.59375 35.9994C6.59354 36.776 7.22297 37.4058 7.99962 37.406L8.00038 34.5935ZM9 25.406C9.77665 25.406 10.4062 24.7764 10.4062 23.9998C10.4062 23.2231 9.77665 22.5935 9 22.5935V25.406ZM6 22.5935C5.22335 22.5935 4.59375 23.2231 4.59375 23.9998C4.59375 24.7764 5.22335 25.406 6 25.406V22.5935ZM9 31.406C9.77665 31.406 10.4062 30.7764 10.4062 29.9998C10.4062 29.2231 9.77665 28.5935 9 28.5935V31.406ZM8 28.5935C7.22335 28.5935 6.59375 29.2231 6.59375 29.9998C6.59375 30.7764 7.22335 31.406 8 31.406V28.5935ZM9 19.406C9.77665 19.406 10.4062 18.7764 10.4062 17.9998C10.4062 17.2231 9.77665 16.5935 9 16.5935V19.406ZM4 16.5935C3.22335 16.5935 2.59375 17.2231 2.59375 17.9998C2.59375 18.7764 3.22335 19.406 4 19.406V16.5935ZM35.9586 20.9447L42.9586 28.659L45.0414 26.7691L38.0414 19.0548L35.9586 20.9447ZM42.5937 27.714V35.9998H45.4062V27.714H42.5937ZM43.9998 34.5935L39.8293 34.5941L39.8297 37.4066L44.0002 37.406L43.9998 34.5935ZM41.1555 35.532C40.5515 33.8221 38.921 32.5935 37 32.5935V35.406C37.6918 35.406 38.2842 35.8476 38.5035 36.4687L41.1555 35.532ZM37 32.5935C35.079 32.5935 33.4485 33.8221 32.8445 35.532L35.4965 36.4687C35.7158 35.8476 36.3081 35.406 37 35.406V32.5935ZM34.1707 34.5941L30.0002 34.5935L29.9998 37.406L34.1703 37.4066L34.1707 34.5941ZM31.4062 35.9998V19.9998H28.5937V35.9998H31.4062ZM30 21.406H37V18.5935H30V21.406ZM2 13.406H30V10.5935H2V13.406ZM28.5937 11.9998V35.9998H31.4062V11.9998H28.5937ZM29.9999 34.5935L15.8294 34.5941L15.8296 37.4066L30.0001 37.406L29.9999 34.5935ZM17.1555 35.532C16.5515 33.8221 14.921 32.5935 13 32.5935V35.406C13.6918 35.406 14.2842 35.8476 14.5035 36.4687L17.1555 35.532ZM13 32.5935C11.079 32.5935 9.4485 33.8221 8.84453 35.532L11.4965 36.4687C11.7158 35.8476 12.3082 35.406 13 35.406V32.5935ZM10.1709 34.5941L8.00038 34.5935L7.99962 37.406L10.1701 37.4066L10.1709 34.5941ZM37 35.406C37.8802 35.406 38.5937 36.1196 38.5937 36.9998H41.4062C41.4062 34.5663 39.4335 32.5935 37 32.5935V35.406ZM38.5937 36.9998C38.5937 37.88 37.8802 38.5935 37 38.5935V41.406C39.4335 41.406 41.4062 39.4333 41.4062 36.9998H38.5937ZM37 38.5935C36.1198 38.5935 35.4062 37.88 35.4062 36.9998H32.5937C32.5937 39.4333 34.5665 41.406 37 41.406V38.5935ZM35.4062 36.9998C35.4062 36.1196 36.1198 35.406 37 35.406V32.5935C34.5665 32.5935 32.5937 34.5663 32.5937 36.9998H35.4062ZM13 35.406C13.8802 35.406 14.5937 36.1196 14.5937 36.9998H17.4062C17.4062 34.5663 15.4335 32.5935 13 32.5935V35.406ZM14.5937 36.9998C14.5937 37.88 13.8802 38.5935 13 38.5935V41.406C15.4335 41.406 17.4062 39.4333 17.4062 36.9998H14.5937ZM13 38.5935C12.1198 38.5935 11.4062 37.88 11.4062 36.9998H8.59375C8.59375 39.4333 10.5665 41.406 13 41.406V38.5935ZM11.4062 36.9998C11.4062 36.1196 12.1198 35.406 13 35.406V32.5935C10.5665 32.5935 8.59375 34.5663 8.59375 36.9998H11.4062ZM9 22.5935H6V25.406H9V22.5935ZM9 28.5935H8V31.406H9V28.5935ZM9 16.5935H4V19.406H9V16.5935ZM32.8445 35.532C32.6817 35.9929 32.5937 36.4876 32.5937 36.9998H35.4062C35.4062 36.8111 35.4384 36.633 35.4965 36.4687L32.8445 35.532ZM41.4062 36.9998C41.4062 36.4876 41.3183 35.9929 41.1555 35.532L38.5035 36.4687C38.5616 36.633 38.5937 36.8111 38.5937 36.9998H41.4062ZM8.84453 35.532C8.68172 35.9929 8.59375 36.4876 8.59375 36.9998H11.4062C11.4062 36.8111 11.4384 36.633 11.4965 36.4687L8.84453 35.532ZM17.4062 36.9998C17.4062 36.4876 17.3183 35.9929 17.1555 35.532L14.5035 36.4687C14.5616 36.633 14.5937 36.8111 14.5937 36.9998H17.4062Z" fill="black"/>
</svg>
