<svg width="48" height="48" viewBox="0 0 48 48" fill="none" xmlns="http://www.w3.org/2000/svg">
<path fill-rule="evenodd" clip-rule="evenodd" d="M10 8.14526C9.48087 8.14526 9.00395 8.43128 8.75947 8.88924C8.51498 9.3472 8.54268 9.90261 8.83154 10.334L20.2825 27.4341V43.5515C20.2825 44.0587 20.5556 44.5266 20.9972 44.776C21.4389 45.0254 21.9806 45.0177 22.4149 44.7557L27.0393 41.967C27.4614 41.7125 27.7194 41.2556 27.7194 40.7628V27.4359L39.1686 10.3338C39.4573 9.90245 39.485 9.34708 39.2405 8.88916C38.996 8.43124 38.5191 8.14526 38 8.14526H10ZM22.8572 26.2243L12.6341 10.9578H35.3663L25.1446 26.2263C24.9896 26.4578 24.9069 26.7301 24.9069 27.0086V39.9687L23.095 41.0613V27.0067C23.095 26.7281 23.0122 26.4558 22.8572 26.2243Z" fill="black"/>
</svg>
