<svg width="48" height="48" viewBox="0 0 48 48" fill="none" xmlns="http://www.w3.org/2000/svg">
<path d="M31.3258 28.6742C30.5936 27.9419 29.4064 27.9419 28.6742 28.6742C27.9419 29.4064 27.9419 30.5936 28.6742 31.3258L31.3258 28.6742ZM40.6742 43.3258C41.4064 44.0581 42.5936 44.0581 43.3258 43.3258C44.0581 42.5936 44.0581 41.4064 43.3258 40.6742L40.6742 43.3258ZM20 32.125C13.3035 32.125 7.875 26.6964 7.875 20H4.125C4.125 28.7675 11.2325 35.875 20 35.875V32.125ZM32.125 20C32.125 26.6964 26.6964 32.125 20 32.125V35.875C28.7675 35.875 35.875 28.7675 35.875 20H32.125ZM20 7.875C26.6964 7.875 32.125 13.3035 32.125 20H35.875C35.875 11.2325 28.7675 4.125 20 4.125V7.875ZM20 4.125C11.2325 4.125 4.125 11.2325 4.125 20H7.875C7.875 13.3035 13.3035 7.875 20 7.875V4.125ZM28.6742 31.3258L40.6742 43.3258L43.3258 40.6742L31.3258 28.6742L28.6742 31.3258Z" fill="black"/>
</svg>
